<svg width="50" height="51" viewBox="0 0 50 51" fill="none" xmlns="http://www.w3.org/2000/svg">
<circle opacity="0.2" cx="25" cy="25.2617" r="25" fill="#4A7CDF"/>
<path d="M17.9527 34.1896C19.0637 33.1206 19.9126 32.3136 20.4995 31.7686C22.5747 29.7773 24.0944 28.2576 25.0586 27.2095C26.0228 26.1614 26.7774 25.0819 27.3224 23.971C27.8884 22.86 28.1713 21.6548 28.1713 20.3552C28.1713 18.8459 27.7731 17.6826 26.9765 16.8651C26.201 16.0476 25.2368 15.6389 24.0839 15.6389C22.8052 15.6389 21.6943 16.1 20.751 17.0223C19.8287 17.9446 19.2104 19.2652 18.896 20.984H18.2671C18.2671 19.9359 18.309 19.108 18.3929 18.5001C18.4767 17.8712 18.6863 17.3367 19.0217 16.8965C19.6086 16.1839 20.4471 15.5865 21.5371 15.1044C22.648 14.6222 23.8114 14.3812 25.0271 14.3812C26.6831 14.3812 28.1399 14.8214 29.3976 15.7017C30.6762 16.5612 31.3155 18.1123 31.3155 20.3552C31.3155 21.6757 31.0011 22.9124 30.3723 24.0653C29.7644 25.2182 28.9679 26.2977 27.9827 27.3038C27.0185 28.289 25.6455 29.5677 23.8638 31.1398C22.0192 32.7957 20.7825 33.9171 20.1536 34.504H27.2281C28.5067 34.504 29.4814 34.2315 30.1522 33.6865C30.8229 33.1416 31.1583 32.3136 31.1583 31.2026H31.7872V33.2464C31.7872 34.9233 30.8963 35.7617 29.1146 35.7617H17.9527V34.1896Z" fill="#4A7CDF"/>
</svg>
