<svg width="50" height="51" viewBox="0 0 50 51" fill="none" xmlns="http://www.w3.org/2000/svg">
<circle opacity="0.2" cx="25" cy="25.2617" r="25" fill="#4A7CDF"/>
<path d="M25.0271 36.3906C23.5179 36.3906 22.1869 36.1076 21.034 35.5416C19.9021 34.9547 18.8645 34.1163 17.9213 33.0263L18.4243 32.4603C19.2418 33.3616 20.1222 34.0324 21.0655 34.4726C22.0087 34.9128 23.0673 35.1329 24.2411 35.1329C25.6036 35.1329 26.725 34.7032 27.6054 33.8438C28.5067 32.9634 28.9574 31.6638 28.9574 29.945C28.9574 28.8969 28.7583 28.006 28.36 27.2724C27.9617 26.5387 27.4482 25.9937 26.8193 25.6374C26.1905 25.2601 25.5407 25.0715 24.8699 25.0715C23.9896 25.0715 23.3398 25.1029 22.9205 25.1658C22.5013 25.2287 21.8934 25.3544 21.0969 25.5431L20.2794 24.2225L28.8002 16.2677H22.9834C21.7048 16.2677 20.7301 16.5402 20.0593 17.0852C19.3886 17.6302 19.0532 18.4582 19.0532 19.5691H18.4243V17.5254C18.4243 15.8485 19.3152 15.01 21.0969 15.01H31.0954V16.2677L22.669 24.1282C23.4865 23.9186 24.4297 23.8138 25.4988 23.8138C26.3372 23.8138 27.2595 23.9919 28.2657 24.3483C29.2718 24.6837 30.1627 25.3125 30.9382 26.2348C31.7138 27.1361 32.1016 28.3729 32.1016 29.945C32.1016 31.6219 31.7033 32.9424 30.9068 33.9066C30.1312 34.8709 29.2089 35.5207 28.1399 35.856C27.0709 36.2124 26.0333 36.3906 25.0271 36.3906Z" fill="#4A7CDF"/>
</svg>
