<svg width="50" height="51" viewBox="0 0 50 51" fill="none" xmlns="http://www.w3.org/2000/svg">
<circle opacity="0.2" cx="25" cy="25.2617" r="25" fill="#4A7CDF"/>
<path d="M24.7442 36.3906C23.2559 36.3906 21.9878 36.1181 20.9397 35.5731C19.8916 35.0281 18.9064 34.2001 17.9841 33.0892L18.5815 32.5546C19.3781 33.435 20.2375 34.0848 21.1598 34.504C22.0821 34.9233 23.1197 35.1329 24.2725 35.1329C25.635 35.1329 26.7565 34.7032 27.6368 33.8438C28.5382 32.9634 28.9888 31.6638 28.9888 29.945C28.9888 28.3309 28.5486 27.1152 27.6683 26.2977C26.8089 25.4802 25.5721 25.0715 23.9581 25.0715C23.0149 25.0715 22.124 25.1239 21.2855 25.2287L20.0279 25.3859L18.7702 24.1282L19.0846 15.01H30.8753V16.2677H21.6629L21.3799 23.971L22.386 23.9081C23.5808 23.8452 24.3145 23.8138 24.587 23.8138C26.5992 23.8138 28.36 24.2749 29.8692 25.1972C31.3784 26.0986 32.133 27.6811 32.133 29.945C32.133 31.6009 31.7243 32.911 30.9068 33.8752C30.1103 34.8185 29.1565 35.4683 28.0456 35.8246C26.9346 36.2019 25.8342 36.3906 24.7442 36.3906Z" fill="#4A7CDF"/>
</svg>
