<svg width="40" height="40" viewBox="0 0 40 40" fill="none" xmlns="http://www.w3.org/2000/svg">
<circle cx="20" cy="20" r="20" fill="#87868E"/>
<path d="M17.9908 9.4099C17.1741 10.4016 15.9199 13.1141 15.9199 13.8724C15.9199 14.0474 17.5824 14.1641 20.0033 14.1641C22.4241 14.1641 24.0866 14.0474 24.0866 13.8724C24.0866 13.1141 22.8324 10.4016 22.0158 9.4099C21.2574 8.50573 20.9366 8.33073 20.0033 8.33073C19.0699 8.33073 18.7491 8.50573 17.9908 9.4099Z" fill="white"/>
<path d="M13.4385 10.1974C11.8927 11.2474 11.076 12.0641 10.2302 13.3474L9.73438 14.1641H11.776H13.8177L14.1385 12.8224C14.3427 12.0641 14.751 10.9557 15.0719 10.3432C15.801 8.91406 15.3927 8.85573 13.4385 10.1974Z" fill="white"/>
<path d="M24.9309 10.3432C25.2517 10.9557 25.6601 12.0641 25.8642 12.8224L26.1851 14.1641H28.2267H30.2684L29.7726 13.3474C28.9559 12.0932 27.8476 10.9849 26.3892 10.0807C24.5809 8.8849 24.2309 8.94323 24.9309 10.3432Z" fill="white"/>
<path d="M8.50996 17.1417C8.27663 18.0167 8.27663 21.9833 8.50996 22.8292C8.68496 23.4417 8.85996 23.5 10.9891 23.5H13.2933V20V16.5H10.9891C8.85996 16.5 8.68496 16.5583 8.50996 17.1417Z" fill="white"/>
<path d="M15.335 20V23.5H20.0016H24.6683V20V16.5H20.0016H15.335V20Z" fill="white"/>
<path d="M26.7109 19.9999V23.4999H29.0151C31.6984 23.4999 31.6693 23.5583 31.6693 19.9999C31.6693 16.4416 31.6984 16.4999 29.0151 16.4999H26.7109V19.9999Z" fill="white"/>
<path d="M10.2302 26.62C11.0469 27.9033 12.1552 29.0116 13.6135 29.9158C15.4219 31.1116 15.7719 31.0533 15.0719 29.6533C14.751 29.0408 14.3427 27.9325 14.1385 27.1741L13.8177 25.8325H11.776H9.73438L10.2302 26.62Z" fill="white"/>
<path d="M15.9199 26.1237C15.9199 26.882 17.1741 29.5945 17.9908 30.557C19.2741 32.132 20.7324 32.132 22.0158 30.557C22.8324 29.5945 24.0866 26.882 24.0866 26.1237C24.0866 25.9487 22.4241 25.832 20.0033 25.832C17.5824 25.832 15.9199 25.9487 15.9199 26.1237Z" fill="white"/>
<path d="M25.981 26.766C25.8643 27.291 25.456 28.4285 25.0768 29.2451C24.2893 31.0243 24.5227 31.141 26.3893 29.916C27.8477 29.0118 28.956 27.9035 29.7727 26.6201L30.2685 25.8326H28.2268H26.1852L25.981 26.766Z" fill="white"/>
</svg>
