<svg width="50" height="51" viewBox="0 0 50 51" fill="none" xmlns="http://www.w3.org/2000/svg">
<g clip-path="url(#clip0_27_64)">
<path d="M5.43019 0.69315C4.41456 2.27518 2.5005 8.89628 2.05128 12.3338C1.93409 13.1932 1.83644 13.408 1.36769 13.6424C-0.468252 14.5994 -0.468252 17.8025 1.34815 18.8767L1.95362 19.2283V34.5213C1.95362 46.1424 2.01222 49.8533 2.188 50.0291C2.53956 50.3807 20.606 50.3611 20.8403 50.0096C20.9185 49.8924 21.0357 48.6424 21.0942 47.2361C21.1724 45.283 21.2896 44.5213 21.563 43.9353C22.0122 43.0564 23.5942 41.4158 24.4146 40.9861C24.9419 40.7127 25.0591 40.7127 25.5864 40.9861C26.4067 41.4158 27.9888 43.0564 28.438 43.9353C28.7114 44.5213 28.8286 45.283 28.9067 47.2361C28.9653 48.6424 29.0825 49.8924 29.1607 50.0096C29.395 50.3611 47.4614 50.3807 47.813 50.0291C47.9888 49.8533 48.0474 46.1424 48.0474 34.5213V19.2478L48.6919 18.8572C49.5903 18.2908 50.0005 17.4705 50.0005 16.2791C50.0005 15.0877 49.5903 14.2674 48.6919 13.7205C48.1841 13.408 48.0474 13.1736 47.9497 12.4119C47.4028 8.52518 45.5278 2.07987 44.5513 0.712681C44.0825 0.0486183 42.9107 0.0876808 42.4224 0.790806C41.4263 2.23612 39.063 10.4197 39.063 12.451C39.063 12.783 38.7505 13.2517 38.106 13.8767C37.0708 14.9119 36.7778 15.7322 36.9927 16.9627C37.1489 17.7244 37.9107 18.74 38.4771 18.9158C38.8482 19.033 38.8677 19.2478 38.8677 24.1111C38.8677 28.9939 38.8482 29.1697 38.4966 29.1697C38.1841 29.1697 38.0864 28.9939 37.9888 28.2517C37.7739 26.6307 36.9536 24.2283 36.1919 22.9783C34.7857 20.6541 32.813 18.9549 29.1021 16.8455C27.9302 16.1814 26.6216 15.283 26.1919 14.8728C25.7427 14.4627 25.2153 14.1307 25.02 14.1307C24.8052 14.1307 24.2778 14.4627 23.8482 14.8728C23.4185 15.283 22.0903 16.1619 20.9185 16.826C17.188 18.9549 15.2153 20.6541 13.8091 22.9783C13.0474 24.2283 12.2271 26.6307 12.0122 28.2517C11.9146 28.9939 11.8169 29.1697 11.5044 29.1697C11.1528 29.1697 11.1333 28.9939 11.1333 24.1111C11.1333 19.2478 11.1528 19.033 11.5239 18.9158C12.0903 18.74 12.8521 17.7244 13.0083 16.9627C13.2427 15.7127 12.9497 14.8924 11.895 13.9158C11.2114 13.2517 10.938 12.8611 10.938 12.4705C10.938 10.3807 8.61378 2.27518 7.57862 0.790806C7.07081 0.0876808 5.85987 0.0290871 5.43019 0.69315ZM7.42237 6.80643C7.93019 8.58377 8.78956 12.4119 8.78956 12.9392C8.78956 13.076 8.02784 13.1541 6.52394 13.1541H4.23878L4.3755 12.0799C4.51222 10.9471 5.85987 5.45877 6.2505 4.46268L6.48487 3.87674L6.68019 4.36502C6.77784 4.63846 7.10987 5.73221 7.42237 6.80643ZM44.2192 6.02518C44.9028 8.38846 45.7036 11.9627 45.7036 12.6072V13.1541H43.4575H41.2114L41.3286 12.3142C41.5435 10.8885 42.1489 8.25174 42.6958 6.41581C42.9692 5.43924 43.2622 4.50174 43.3013 4.30643C43.4771 3.74002 43.6919 4.15018 44.2192 6.02518ZM3.47706 15.615C4.19972 16.1228 3.92628 17.0603 3.02784 17.0603C2.20753 17.0603 1.8755 16.201 2.46144 15.615C2.83253 15.2244 2.93019 15.2244 3.47706 15.615ZM6.95362 16.2205C6.97315 17.3924 7.4419 18.3494 8.32081 18.8572L8.98487 19.2478V33.6814V48.115H6.54347H4.10206V33.701V19.2869L4.70753 18.8377C5.58644 18.1736 6.05519 17.2947 6.05519 16.2205C6.05519 15.4002 6.09425 15.3025 6.5044 15.3025C6.91456 15.3025 6.95362 15.4002 6.95362 16.2205ZM10.5474 15.6932C11.0357 16.1814 11.0357 16.3767 10.5278 16.8846C10.1763 17.2361 10.0786 17.2557 9.70753 17.0017C9.14112 16.6307 9.04347 15.8885 9.49269 15.5564C9.96144 15.2244 10.0786 15.2244 10.5474 15.6932ZM40.4497 15.4978C40.8599 15.7322 40.938 16.4744 40.5864 16.826C40.1763 17.2361 39.4732 17.0994 39.2192 16.5525C39.0044 16.1033 39.0239 15.9861 39.4341 15.6736C39.9614 15.2439 39.9614 15.2439 40.4497 15.4978ZM43.9458 16.2205C43.9458 17.2947 44.4146 18.1736 45.2935 18.8377L45.8989 19.2869V33.701V48.115H43.4575H41.0161V33.6814V19.2478L41.6802 18.8572C42.5591 18.3494 43.0278 17.3924 43.0474 16.2205C43.0474 15.4002 43.0864 15.3025 43.4966 15.3025C43.9067 15.3025 43.9458 15.4002 43.9458 16.2205ZM47.5396 15.615C47.9692 16.0447 47.9302 16.5916 47.4224 16.9432C47.0513 17.1971 46.9341 17.2166 46.5825 16.9822C46.0161 16.6111 45.9771 15.9861 46.5239 15.615C47.0708 15.2244 47.1685 15.2244 47.5396 15.615ZM25.9185 17.5291C26.4458 17.8807 27.3833 18.4666 28.0278 18.8377C32.7739 21.4549 35.02 24.0721 35.6255 27.6658L35.8599 29.0721L30.4302 29.1307C27.4419 29.1502 22.5591 29.1502 19.5708 29.1307L14.1411 29.0721L14.3755 27.6658C15.0005 23.9353 17.0513 21.6307 22.5591 18.4666C23.3208 18.0369 24.1607 17.49 24.4146 17.2752C24.688 17.0603 24.9224 16.8846 24.9419 16.865C24.981 16.865 25.4107 17.158 25.9185 17.5291ZM38.8677 39.7166V48.115H34.9614H31.0552V46.201C31.0552 44.5017 30.9966 44.1697 30.4692 43.076C30.1372 42.3533 29.4536 41.4158 28.8286 40.7908C27.6763 39.6385 25.5278 38.1541 25.0005 38.1541C24.4732 38.1541 22.3247 39.6385 21.1724 40.7908C20.5474 41.4158 19.8638 42.3533 19.5317 43.076C19.0044 44.1697 18.9458 44.5017 18.9458 46.201V48.115H15.0396H11.1333V39.7166V31.3182H25.0005H38.8677V39.7166Z" fill="#4A86E8"/>
</g>
<defs>
<clipPath id="clip0_27_64">
<rect width="50" height="50" fill="white" transform="translate(0 0.261719)"/>
</clipPath>
</defs>
</svg>
