<svg width="50" height="51" viewBox="0 0 50 51" fill="none" xmlns="http://www.w3.org/2000/svg">
<g clip-path="url(#clip0_27_67)">
<path d="M21.0938 0.554688C14.1211 2.11719 8.78906 7.13672 6.79688 14.0508C6.40625 15.3984 6.34766 16.0234 6.34766 19.0117C6.34766 22 6.40625 22.625 6.79688 23.9727C7.71484 27.1562 9.16016 29.6758 11.4062 32.0391L12.7539 33.4648H10.957C9.96094 33.4648 8.98438 33.543 8.78906 33.6602C8.4375 33.8555 1.95312 48.6992 1.95312 49.3242C1.95312 49.5 2.08984 49.793 2.26562 49.9492C2.53906 50.2227 4.86328 50.2617 25 50.2617C45.1367 50.2617 47.4609 50.2227 47.7344 49.9492C47.9102 49.793 48.0469 49.5 48.0469 49.3242C48.0469 48.6992 41.5625 33.8555 41.2109 33.6602C41.0156 33.543 40.0391 33.4648 39.043 33.4648H37.2461L38.5938 32.0391C40.8398 29.6758 42.2852 27.1562 43.2031 23.9727C43.5938 22.625 43.6523 22 43.6523 19.0117C43.6523 16.0234 43.5938 15.3984 43.2031 14.0508C41.3281 7.56641 36.5039 2.72266 30.0586 0.828125C28.1641 0.28125 23.0469 0.125 21.0938 0.554688ZM29.375 3.09375C35.1172 4.75391 39.1797 8.81641 40.9375 14.6562C41.3867 16.1406 41.4648 16.7266 41.4648 19.0117C41.4648 21.2969 41.3867 21.8828 40.9375 23.3672C40.332 25.418 39.5117 27.0781 38.3789 28.6797C37.9102 29.3242 34.707 32.6641 31.2695 36.1016L25 42.3516L18.7305 36.1016C15.293 32.6641 12.0898 29.3242 11.6211 28.6797C8.61328 24.4805 7.69531 19.4023 9.10156 14.5977C10.9375 8.23047 16.1523 3.64062 22.7148 2.58594C24.4531 2.3125 27.4805 2.54688 29.375 3.09375ZM19.8242 40.4961C23.3594 44.0117 24.6484 45.1836 25 45.1836C25.3516 45.1836 26.6406 44.0117 30.1758 40.4961L34.8828 35.7891L37.4023 35.8477L39.9023 35.9062L42.5 41.9609L45.0977 48.0156L35.0391 48.0742C29.5117 48.0938 20.4883 48.0938 14.9609 48.0742L4.90234 48.0156L7.32422 42.3516C8.67188 39.2266 9.84375 36.4922 9.96094 36.2383C10.1367 35.8281 10.2344 35.8086 12.6367 35.8086H15.1172L19.8242 40.4961Z" fill="#4A86E8"/>
<path d="M22.7344 8.76003C18.0078 9.79519 14.4531 14.1702 14.4531 19.0139C14.4531 21.6507 15.6641 24.5022 17.5781 26.4358C23.4766 32.3147 33.4961 29.3264 35.2734 21.1624C35.6055 19.5608 35.6055 18.4671 35.2734 16.846C34.0625 11.1428 28.457 7.51003 22.7344 8.76003ZM27.9297 11.3772C31.2109 12.6467 33.3984 16.0257 33.1641 19.4632C32.9102 22.9983 30.6641 25.8303 27.2852 26.8655C23.9844 27.8616 20.3125 26.553 18.3008 23.7014C15.1562 19.1897 17.2852 12.9202 22.5586 11.2014C24.082 10.6936 26.3867 10.7717 27.9297 11.3772Z" fill="#4A86E8"/>
</g>
<defs>
<clipPath id="clip0_27_67">
<rect width="50" height="50" fill="white" transform="translate(0 0.261719)"/>
</clipPath>
</defs>
</svg>
