<svg width="50" height="51" viewBox="0 0 50 51" fill="none" xmlns="http://www.w3.org/2000/svg">
<path d="M12.4021 2.66797C11.7576 2.92188 10.3904 3.66406 9.35526 4.32812C7.42167 5.57812 6.17167 6.125 5.29277 6.125C4.15995 6.125 3.55448 7.12109 4.15995 7.96094C4.3748 8.27344 4.6287 8.3125 5.68339 8.23438C7.10917 8.15625 8.80839 7.43359 10.781 6.10547C11.4646 5.63672 12.4998 5.07031 13.0857 4.81641C15.0975 3.99609 16.2889 4.25 19.5115 6.30078C22.0506 7.88281 23.1443 8.27344 24.9998 8.27344C26.8553 8.27344 27.949 7.88281 30.4881 6.30078C33.7107 4.25 34.9021 3.99609 36.9139 4.81641C37.4998 5.07031 38.535 5.63672 39.2185 6.10547C41.1912 7.43359 42.8904 8.15625 44.3162 8.23438C45.3709 8.3125 45.6248 8.27344 45.8396 7.96094C46.4451 7.12109 45.8396 6.125 44.7068 6.125C43.8084 6.125 42.5975 5.57812 40.5271 4.26953C37.8709 2.57031 36.6795 2.16016 34.6678 2.25781C32.8904 2.35547 31.4256 2.92188 29.2967 4.36719C25.8396 6.71094 24.16 6.71094 20.7029 4.36719C18.5154 2.88281 17.1092 2.33594 15.2342 2.27734C13.867 2.21875 13.3592 2.29688 12.4021 2.66797Z" fill="#4A86E8"/>
<path d="M13.125 14.4248C11.875 14.7764 11.3672 15.0303 9.31641 16.3584C7.40234 17.6084 6.5625 17.9795 5.25391 18.1553C4.25781 18.292 3.90625 18.6045 3.90625 19.3662C3.90625 19.5615 4.08203 19.8936 4.29688 20.0889C4.60938 20.3819 4.88281 20.4209 5.80078 20.3037C7.14844 20.1475 8.51562 19.542 10.6055 18.2139C12.793 16.8076 13.7695 16.417 15.0391 16.4365C16.3672 16.4561 17.1289 16.7686 19.5117 18.292C22.1289 19.9522 22.9883 20.2647 25 20.2647C27.0117 20.2647 27.8711 19.9522 30.4883 18.292C32.8711 16.7686 33.6328 16.4561 34.9609 16.4365C36.2305 16.417 37.207 16.8076 39.3945 18.2139C41.4844 19.542 42.8516 20.1475 44.1992 20.3037C45.1172 20.4209 45.3906 20.3819 45.7031 20.0889C45.918 19.8936 46.0938 19.5615 46.0938 19.3662C46.0938 18.6045 45.7422 18.292 44.7266 18.1553C43.4375 17.9795 42.4609 17.5498 40.2539 16.1045C37.9297 14.6006 36.8555 14.2295 34.8633 14.2295C33.457 14.2295 33.1445 14.3076 31.8359 14.9522C31.0352 15.3428 29.5898 16.1631 28.6523 16.749C25.5859 18.6631 24.2773 18.624 20.9961 16.5537C17.4219 14.2881 15.4688 13.7608 13.125 14.4248Z" fill="#4A86E8"/>
<path d="M12.5781 26.5938C12.0117 26.7891 10.6446 27.5312 9.5508 28.2148C7.26564 29.6602 6.15236 30.1484 5.19533 30.1484C4.16018 30.1484 3.6133 31.0078 4.10158 31.9258C4.25783 32.2188 4.51174 32.2969 5.25393 32.2969C6.62111 32.2969 7.92971 31.8477 9.78518 30.7148C12.7735 28.8789 13.4375 28.5664 14.5313 28.4492C15.9375 28.3125 16.9336 28.6641 19.4727 30.2656C21.9727 31.8281 23.2422 32.2969 25 32.2969C26.7578 32.2969 28.0274 31.8281 30.5274 30.2656C33.0664 28.6641 34.0625 28.3125 35.4688 28.4492C36.5625 28.5664 37.2266 28.8789 40.2149 30.7148C42.0703 31.8477 43.3789 32.2969 44.7461 32.2969C45.4883 32.2969 45.7422 32.2188 45.8985 31.9258C46.3867 31.0078 45.8399 30.1484 44.7852 30.1484C43.8281 30.1484 42.6953 29.6602 40.7617 28.4102C38.1836 26.7305 37.3047 26.3789 35.4297 26.2812C33.5156 26.1836 32.3633 26.4961 30.4688 27.668C27.0703 29.7773 26.6016 29.9922 25.4492 30.0898C24.0039 30.2266 22.9883 29.8359 20.4297 28.2148C19.375 27.5312 18.0274 26.8281 17.4219 26.6133C16.0547 26.1445 13.9258 26.125 12.5781 26.5938Z" fill="#4A86E8"/>
<path d="M13.0865 38.4281C12.0318 38.7406 11.2896 39.1117 9.57086 40.2055C7.61773 41.4555 6.73883 41.8656 5.50836 42.0805C4.90289 42.1977 4.27789 42.432 4.1607 42.6078C3.75055 43.1156 3.86773 43.7797 4.39508 44.1312C5.35211 44.7562 7.79351 44.0531 10.2935 42.4125C12.0513 41.2602 13.4576 40.5766 14.4927 40.4008C15.5474 40.2055 17.0904 40.7328 18.8677 41.8852C22.0123 43.9359 23.8482 44.5805 25.8599 44.307C27.2857 44.1117 28.1451 43.7211 30.567 42.2172C32.9498 40.7328 34.4146 40.1859 35.5084 40.4008C36.5045 40.5766 38.0279 41.2992 39.3951 42.2172C41.1334 43.3891 42.4029 43.975 43.8091 44.2289C44.942 44.4437 45.1568 44.4242 45.5865 44.1312C46.1334 43.7797 46.2505 43.1156 45.8599 42.6078C45.7232 42.432 45.0982 42.1977 44.4537 42.0805C43.2818 41.8656 42.5396 41.4945 39.6685 39.7367C37.6177 38.4867 36.8365 38.2523 34.8638 38.2719C32.9302 38.2914 31.9537 38.643 29.4732 40.2641C27.1295 41.7875 26.3482 42.1 25.0005 42.1C23.6529 42.1 22.8716 41.7875 20.5279 40.2641C19.5123 39.6 18.2427 38.8969 17.6959 38.682C16.4459 38.2133 14.2388 38.0766 13.0865 38.4281Z" fill="#4A86E8"/>
</svg>
