<svg width="88" height="47" viewBox="0 0 88 47" fill="none" xmlns="http://www.w3.org/2000/svg">
<path d="M9.39553 28.6286C9.56548 28.1055 10.3055 28.1055 10.4754 28.6286L12.0387 33.4397C12.1147 33.6737 12.3327 33.832 12.5786 33.832H17.6374C18.1873 33.832 18.416 34.5358 17.9711 34.8591L13.8785 37.8326C13.6795 37.9771 13.5962 38.2334 13.6722 38.4673L15.2355 43.2784C15.4054 43.8015 14.8067 44.2365 14.3618 43.9132L10.2692 40.9398C10.0702 40.7952 9.80076 40.7952 9.60177 40.9398L5.50917 43.9132C5.06422 44.2365 4.46555 43.8015 4.63551 43.2784L6.19874 38.4673C6.27475 38.2334 6.19148 37.9771 5.9925 37.8326L1.8999 34.8591C1.45495 34.5358 1.68362 33.832 2.23361 33.832H7.29234C7.5383 33.832 7.75629 33.6737 7.83229 33.4397L9.39553 28.6286Z" fill="#CAB47A"/>
<path d="M78.6045 28.6286C78.4345 28.1055 77.6945 28.1055 77.5246 28.6286L75.9613 33.4397C75.8853 33.6737 75.6673 33.832 75.4214 33.832H70.3626C69.8127 33.832 69.584 34.5358 70.0289 34.8591L74.1215 37.8326C74.3205 37.9771 74.4038 38.2334 74.3278 38.4673L72.7645 43.2784C72.5946 43.8015 73.1933 44.2365 73.6382 43.9132L77.7308 40.9398C77.9298 40.7952 78.1992 40.7952 78.3982 40.9398L82.4908 43.9132C82.9358 44.2365 83.5344 43.8015 83.3645 43.2784L81.8013 38.4673C81.7253 38.2334 81.8085 37.9771 82.0075 37.8326L86.1001 34.8591C86.5451 34.5358 86.3164 33.832 85.7664 33.832H80.7077C80.4617 33.832 80.2437 33.6737 80.1677 33.4397L78.6045 28.6286Z" fill="#CAB47A"/>
<path d="M22.1719 14.4333C22.3419 13.9102 23.0819 13.9102 23.2518 14.4333L24.815 19.2444C24.891 19.4784 25.109 19.6367 25.355 19.6367H30.4137C30.9637 19.6367 31.1924 20.3405 30.7474 20.6638L26.6548 23.6372C26.4558 23.7818 26.3726 24.0381 26.4486 24.272L28.0118 29.0831C28.1818 29.6062 27.5831 30.0412 27.1382 29.7179L23.0456 26.7444C22.8466 26.5999 22.5771 26.5999 22.3781 26.7444L18.2855 29.7179C17.8406 30.0412 17.2419 29.6062 17.4119 29.0831L18.9751 24.272C19.0511 24.0381 18.9679 23.7818 18.7689 23.6372L14.6763 20.6638C14.2313 20.3405 14.46 19.6367 15.01 19.6367H20.0687C20.3147 19.6367 20.5327 19.4784 20.6087 19.2444L22.1719 14.4333Z" fill="#CAB47A"/>
<path d="M65.8281 14.4333C65.6581 13.9102 64.9181 13.9102 64.7482 14.4333L63.185 19.2444C63.109 19.4784 62.891 19.6367 62.645 19.6367H57.5863C57.0363 19.6367 56.8076 20.3405 57.2526 20.6638L61.3452 23.6372C61.5442 23.7818 61.6274 24.0381 61.5514 24.272L59.9882 29.0831C59.8182 29.6062 60.4169 30.0412 60.8618 29.7179L64.9544 26.7444C65.1534 26.5999 65.4229 26.5999 65.6219 26.7444L69.7145 29.7179C70.1594 30.0412 70.7581 29.6062 70.5881 29.0831L69.0249 24.272C68.9489 24.0381 69.0321 23.7818 69.2311 23.6372L73.3237 20.6638C73.7687 20.3405 73.54 19.6367 72.99 19.6367H67.9313C67.6853 19.6367 67.4673 19.4784 67.3913 19.2444L65.8281 14.4333Z" fill="#CAB47A"/>
<path d="M43.4579 1.66181C43.6278 1.13874 44.3678 1.13874 44.5378 1.66181L46.7383 8.43445C46.8144 8.66837 47.0323 8.82675 47.2783 8.82675H54.3995C54.9495 8.82675 55.1781 9.53053 54.7332 9.85381L48.972 14.0395C48.773 14.1841 48.6898 14.4404 48.7658 14.6743L50.9664 21.4469C51.1363 21.97 50.5376 22.405 50.0927 22.0817L44.3315 17.896C44.1326 17.7514 43.8631 17.7514 43.6641 17.896L37.903 22.0817C37.458 22.405 36.8593 21.97 37.0293 21.4469L39.2299 14.6743C39.3059 14.4404 39.2226 14.1841 39.0236 14.0395L33.2625 9.8538C32.8175 9.53053 33.0462 8.82675 33.5962 8.82675H40.7174C40.9633 8.82675 41.1813 8.66837 41.2573 8.43445L43.4579 1.66181Z" fill="#CAB47A"/>
</svg>
