<svg width="40" height="41" viewBox="0 0 40 41" fill="none" xmlns="http://www.w3.org/2000/svg">
<circle cx="20" cy="20.5" r="20" fill="#87868E"/>
<path d="M13.7233 19.0864L16.29 16.5197C16.6167 16.193 16.71 15.738 16.5817 15.3297C16.15 14.023 15.9167 12.623 15.9167 11.1647C15.9167 10.523 15.3917 9.99805 14.75 9.99805H10.6667C10.025 9.99805 9.5 10.523 9.5 11.1647C9.5 22.1197 18.3783 30.998 29.3333 30.998C29.975 30.998 30.5 30.473 30.5 29.8314V25.7597C30.5 25.118 29.975 24.593 29.3333 24.593C27.8867 24.593 26.475 24.3597 25.1683 23.928C24.76 23.788 24.2933 23.893 23.9783 24.208L21.4117 26.7747C18.11 25.083 15.4033 22.388 13.7233 19.0864Z" fill="white"/>
</svg>
