<svg width="57" height="51" viewBox="0 0 57 51" fill="none" xmlns="http://www.w3.org/2000/svg">
<g clip-path="url(#clip0_27_43)">
<path d="M29.2747 15.3203C31.6965 20.1641 33.7278 24.0703 33.8059 23.9922C33.884 23.9336 34.6067 22.8008 35.427 21.4922C36.7551 19.3438 36.97 19.1094 37.5168 19.0508L38.1223 18.9922L43.3176 29.3633C46.97 36.6484 48.4934 39.9102 48.4543 40.2812C48.4153 40.6914 48.2786 40.8086 47.7708 40.8477L47.1458 40.9062L42.3411 31.3164C39.7043 26.0234 37.4778 21.7656 37.3997 21.8438C37.3215 21.9023 36.5989 23.0352 35.7786 24.3438C34.4504 26.4922 34.2356 26.7266 33.6887 26.7852L33.0833 26.8438L28.7473 18.1914L24.4114 9.53906L23.4739 12.1758C21.8528 16.6094 21.8918 16.5703 21.2278 16.6289C20.7786 16.668 20.3489 16.4141 19.1965 15.5156C18.3958 14.8711 17.6731 14.4023 17.6145 14.4805C17.4973 14.6172 7.90747 39.8711 7.71216 40.5547C7.63403 40.8672 8.02465 40.8867 13.9036 40.8867H20.1731L20.0754 40.4375C19.8411 39.4023 18.8059 32.2539 18.8059 31.6289C18.8059 31.0039 18.9622 30.8281 20.8958 29.2852C22.2825 28.1719 23.1809 27.6055 23.4934 27.6055C23.845 27.6055 24.8997 28.4062 27.2629 30.457C29.9973 32.8594 30.5247 33.4062 30.5247 33.8555C30.5247 34.1484 30.095 35.8281 29.5676 37.5859C29.0208 39.3438 28.6301 40.8086 28.6497 40.8281C28.6887 40.8672 31.4426 40.8672 34.7629 40.8477L40.8372 40.7891L38.4153 35.6133C35.72 29.8516 35.5637 29.2656 36.7747 29.2656H37.4387L40.2317 35.2227C42.2239 39.4609 43.0247 41.3555 42.9856 41.7656L42.927 42.3516H34.8215H26.7161L26.6575 41.7656C26.6379 41.4336 27.0872 39.5977 27.6536 37.6836L28.7083 34.168L26.0715 31.8633L23.4543 29.5781L22.009 30.75C21.2083 31.3945 20.5637 31.9609 20.5637 31.9805C20.5637 32.0195 20.8762 34.0508 21.2473 36.5117C21.6379 38.9727 21.9309 41.2773 21.8918 41.668L21.8333 42.3516H13.7278H5.62231L5.56372 41.8047C5.52466 41.4531 7.36059 36.3164 10.8957 26.9609C13.884 19.0898 16.384 12.5078 16.5012 12.3125C16.8333 11.668 17.6536 11.9219 19.1965 13.1523C19.9973 13.7969 20.7004 14.2461 20.7786 14.168C20.8372 14.0898 21.4426 12.4883 22.1262 10.6133C23.6301 6.39453 23.5715 6.51172 24.2747 6.51172C24.8411 6.51172 24.9387 6.6875 29.2747 15.3203Z" fill="#4A86E8"/>
</g>
<g clip-path="url(#clip1_27_43)">
<path d="M20.0547 10.4893C18.8047 10.8408 18.2969 11.0947 16.2461 12.4229C14.332 13.6729 13.4922 14.044 12.1836 14.2197C11.1875 14.3565 10.8359 14.669 10.8359 15.4307C10.8359 15.626 11.0117 15.958 11.2266 16.1533C11.5391 16.4463 11.8125 16.4854 12.7305 16.3682C14.0781 16.2119 15.4453 15.6065 17.5352 14.2783C19.7227 12.8721 20.6992 12.4815 21.9688 12.501C23.2969 12.5205 24.0586 12.833 26.4414 14.3565C29.0586 16.0166 29.918 16.3291 31.9297 16.3291C33.9414 16.3291 34.8008 16.0166 37.418 14.3565C39.8008 12.833 40.5625 12.5205 41.8906 12.501C43.1602 12.4815 44.1367 12.8721 46.3242 14.2783C48.4141 15.6065 49.7812 16.2119 51.1289 16.3682C52.0469 16.4854 52.3203 16.4463 52.6328 16.1533C52.8477 15.958 53.0234 15.626 53.0234 15.4307C53.0234 14.669 52.6719 14.3565 51.6562 14.2197C50.3672 14.044 49.3906 13.6143 47.1836 12.169C44.8594 10.6651 43.7852 10.294 41.793 10.294C40.3867 10.294 40.0742 10.3721 38.7656 11.0166C37.9648 11.4072 36.5195 12.2276 35.582 12.8135C32.5156 14.7276 31.207 14.6885 27.9258 12.6182C24.3516 10.3526 22.3984 9.82521 20.0547 10.4893Z" fill="#4A86E8"/>
<path d="M19.5078 22.6582C18.9414 22.8535 17.5742 23.5957 16.4805 24.2793C14.1953 25.7246 13.0821 26.2129 12.125 26.2129C11.0899 26.2129 10.543 27.0723 11.0313 27.9902C11.1875 28.2832 11.4414 28.3613 12.1836 28.3613C13.5508 28.3613 14.8594 27.9121 16.7149 26.7793C19.7031 24.9434 20.3672 24.6309 21.461 24.5137C22.8672 24.377 23.8633 24.7285 26.4024 26.3301C28.9024 27.8926 30.1719 28.3613 31.9297 28.3613C33.6875 28.3613 34.9571 27.8926 37.4571 26.3301C39.9961 24.7285 40.9922 24.377 42.3985 24.5137C43.4922 24.6309 44.1563 24.9434 47.1446 26.7793C49 27.9121 50.3086 28.3613 51.6758 28.3613C52.418 28.3613 52.6719 28.2832 52.8281 27.9902C53.3164 27.0723 52.7696 26.2129 51.7149 26.2129C50.7578 26.2129 49.625 25.7246 47.6914 24.4746C45.1133 22.7949 44.2344 22.4434 42.3594 22.3457C40.4453 22.248 39.293 22.5605 37.3985 23.7324C34 25.8418 33.5313 26.0566 32.3789 26.1543C30.9336 26.291 29.918 25.9004 27.3594 24.2793C26.3047 23.5957 24.9571 22.8926 24.3516 22.6777C22.9844 22.209 20.8555 22.1895 19.5078 22.6582Z" fill="#4A86E8"/>
<path d="M20.0162 34.4926C18.9615 34.8051 18.2193 35.1762 16.5005 36.2699C14.5474 37.5199 13.6685 37.9301 12.438 38.1449C11.8326 38.2621 11.2076 38.4965 11.0904 38.6723C10.6802 39.1801 10.7974 39.8441 11.3248 40.1957C12.2818 40.8207 14.7232 40.1176 17.2232 38.4769C18.981 37.3246 20.3873 36.641 21.4224 36.4652C22.4771 36.2699 24.0201 36.7973 25.7974 37.9496C28.942 40.0004 30.7779 40.6449 32.7896 40.3715C34.2154 40.1762 35.0748 39.7855 37.4966 38.2816C39.8795 36.7973 41.3443 36.2504 42.438 36.4652C43.4341 36.641 44.9576 37.3637 46.3248 38.2816C48.063 39.4535 49.3326 40.0394 50.7388 40.2934C51.8716 40.5082 52.0865 40.4887 52.5162 40.1957C53.063 39.8441 53.1802 39.1801 52.7896 38.6723C52.6529 38.4965 52.0279 38.2621 51.3834 38.1449C50.2115 37.9301 49.4693 37.559 46.5982 35.8012C44.5474 34.5512 43.7662 34.3168 41.7935 34.3363C39.8599 34.3559 38.8834 34.7074 36.4029 36.3285C34.0591 37.8519 33.2779 38.1644 31.9302 38.1644C30.5826 38.1644 29.8013 37.8519 27.4576 36.3285C26.442 35.6644 25.1724 34.9613 24.6255 34.7465C23.3755 34.2777 21.1685 34.141 20.0162 34.4926Z" fill="#4A86E8"/>
</g>
<line x1="29" y1="6.90234" x2="29" y2="43.6211" stroke="#4A86E8" stroke-width="1.95312" stroke-linecap="round"/>
<defs>
<clipPath id="clip0_27_43">
<rect width="25" height="50" fill="white" transform="translate(0.875 0.261719)"/>
</clipPath>
<clipPath id="clip1_27_43">
<rect width="25" height="50" fill="white" transform="translate(31.9297 0.261719)"/>
</clipPath>
</defs>
</svg>
