<svg width="50" height="51" viewBox="0 0 50 51" fill="none" xmlns="http://www.w3.org/2000/svg">
<path d="M9.21875 3.77734C8.86719 3.99219 8.41797 4.44141 8.20312 4.79297C7.8125 5.41797 7.8125 5.82812 7.8125 25.6328V45.8086L8.47656 46.4727L9.14062 47.1367H24.2188H39.2969L39.9609 46.4727C40.5078 45.9258 40.625 45.6523 40.625 45.0078C40.625 44.3047 40.7422 44.0898 41.4062 43.4453L42.1875 42.7031V23.7188V4.71484L41.5234 4.05078L40.8594 3.38672H25.3711C10.2344 3.38672 9.84375 3.40625 9.21875 3.77734ZM40.2344 5.33984C40.4492 5.55469 40.625 5.88672 40.625 6.10156C40.625 6.29688 40.4492 6.51172 40.2344 6.57031C39.8828 6.66797 39.8438 6.84375 39.8438 8.07422C39.8438 9.30469 39.8828 9.48047 40.2344 9.57812C40.625 9.67578 40.625 9.85156 40.625 25.6719C40.625 41.4141 40.625 41.668 40.2344 42.0586C39.8438 42.4492 39.5898 42.4492 24.6094 42.4492H9.375V26.0625C9.375 9.85156 9.375 9.67578 9.76562 9.57812C10.1172 9.48047 10.1562 9.30469 10.1562 8.09375C10.1562 7.03906 10.0781 6.6875 9.84375 6.55078C9.62891 6.43359 9.57031 6.23828 9.66797 5.94531C9.98047 4.96875 10 4.96875 25.4492 4.94922C39.5898 4.94922 39.8438 4.94922 40.2344 5.33984ZM39.0625 44.4023C39.0625 44.6172 38.8867 44.9688 38.6719 45.1836C38.2812 45.5742 38.0273 45.5742 24.2969 45.5742C15.0391 45.5742 10.1953 45.5156 9.94141 45.3789C9.47266 45.125 9.45312 44.4805 9.92188 44.2266C10.1367 44.0898 15.2344 44.0312 24.668 44.0117C38.9258 44.0117 39.0625 44.0117 39.0625 44.4023Z" fill="#4A86E8"/>
<path d="M12.5789 6.76562C12.5203 6.92188 12.5008 7.60547 12.5399 8.28906L12.5984 9.53906H13.282H13.9656V8.07422V6.60938L13.3211 6.55078C12.9109 6.51172 12.657 6.58984 12.5789 6.76562Z" fill="#4A86E8"/>
<path d="M16.4852 6.76562C16.4266 6.92188 16.407 7.60547 16.4461 8.28906L16.5047 9.53906H17.1883H17.8719V8.07422V6.60938L17.2274 6.55078C16.8172 6.51172 16.5633 6.58984 16.4852 6.76562Z" fill="#4A86E8"/>
<path d="M20.3914 6.76562C20.3328 6.92188 20.3133 7.60547 20.3524 8.28906L20.4109 9.53906H21.0945H21.7781V8.07422V6.60938L21.1336 6.55078C20.7234 6.51172 20.4695 6.58984 20.3914 6.76562Z" fill="#4A86E8"/>
<path d="M24.2977 6.76562C24.2391 6.92188 24.2195 7.60547 24.2586 8.28906L24.3172 9.53906H25.0008H25.6844V8.07422V6.60938L25.0399 6.55078C24.6297 6.51172 24.3758 6.58984 24.2977 6.76562Z" fill="#4A86E8"/>
<path d="M28.2039 6.76562C28.1453 6.92188 28.1258 7.60547 28.1649 8.28906L28.2234 9.53906H28.907H29.5906V8.07422V6.60938L28.9461 6.55078C28.5359 6.51172 28.282 6.58984 28.2039 6.76562Z" fill="#4A86E8"/>
<path d="M32.1102 6.76562C32.0516 6.92188 32.032 7.60547 32.0711 8.28906L32.1297 9.53906H32.8133H33.4969V8.07422V6.60938L32.8524 6.55078C32.4422 6.51172 32.1883 6.58984 32.1102 6.76562Z" fill="#4A86E8"/>
<path d="M36.0164 6.76562C35.9578 6.92188 35.9383 7.60547 35.9774 8.28906L36.0359 9.53906H36.7195H37.4031V8.07422V6.60938L36.7586 6.55078C36.3484 6.51172 36.0945 6.58984 36.0164 6.76562Z" fill="#4A86E8"/>
<path d="M22.0312 13.1328C19.1992 14.0508 16.7773 16.5312 15.9375 19.3828C15.5273 20.7695 15.5273 23.5039 15.9375 24.8906C16.7773 27.7812 19.2187 30.2422 22.0898 31.1406C23.6914 31.6484 26.3086 31.6484 27.9102 31.1406C30.7812 30.2422 33.2227 27.7812 34.0625 24.8906C34.4727 23.5039 34.4727 20.7695 34.0625 19.3828C33.2227 16.4922 30.7812 14.0312 27.9102 13.1328C26.3281 12.6445 23.5742 12.6445 22.0312 13.1328ZM24.2187 18.0352V21.3555H22.7539H21.2891V20.7109C21.2891 19.9297 21.7773 18.0352 22.2461 16.9609C22.6172 16.1211 23.75 14.7148 24.043 14.7148C24.1406 14.7148 24.2187 16.1992 24.2187 18.0352ZM26.7578 15.4375C27.7539 16.5703 28.7109 19.1484 28.7109 20.7109V21.3555H27.2461H25.7812V18.0352C25.7812 16.1992 25.8594 14.7148 25.957 14.7148C26.0547 14.7148 26.4258 15.0469 26.7578 15.4375ZM20.6055 16.2969C20.1758 17.1172 19.5312 19.6953 19.5312 20.6133V21.3555H18.4375H17.3242L17.4414 20.6719C17.6367 19.4219 18.5156 17.8594 19.6094 16.7656C20.1953 16.1797 20.7227 15.6914 20.8008 15.6914C20.8594 15.6914 20.7617 15.9648 20.6055 16.2969ZM31.0547 17.4688C31.7969 18.4258 32.6172 20.2422 32.6172 20.9648C32.6172 21.2969 32.4805 21.3555 31.543 21.3555H30.4687V20.6133C30.4687 19.6953 29.8242 17.1172 29.3945 16.2578L29.0625 15.6328L29.6875 16.082C30.0195 16.3164 30.6445 16.9414 31.0547 17.4688ZM19.5312 23.6602C19.5312 24.5781 20.1758 27.1562 20.6055 28.0156L20.9375 28.6406L20.332 28.2109C19.0625 27.293 17.6953 25.125 17.4414 23.6406L17.3242 22.918H18.4375H19.5312V23.6602ZM24.2187 26.2383C24.2187 28.0742 24.1406 29.5586 24.043 29.5586C23.75 29.5586 22.6172 28.1523 22.2461 27.3125C21.7773 26.2383 21.2891 24.3438 21.2891 23.5625V22.918H22.7539H24.2187V26.2383ZM28.7109 23.5625C28.7109 24.3438 28.2227 26.2383 27.7539 27.3125C27.3828 28.1523 26.25 29.5586 25.957 29.5586C25.8594 29.5586 25.7812 28.0742 25.7812 26.2383V22.918H27.2461H28.7109V23.5625ZM32.6172 23.3086C32.6172 24.5781 31.0156 27.2539 29.6875 28.1914L29.0625 28.6406L29.3945 28.0156C29.8242 27.1562 30.4687 24.5781 30.4687 23.6602V22.918H31.543C32.4805 22.918 32.6172 22.9766 32.6172 23.3086Z" fill="#4A86E8"/>
<path d="M16.4852 34.9102C16.4266 35.0664 16.407 35.3984 16.4461 35.6523L16.5047 36.1016H21.8758H27.2469V35.418V34.7344L21.9149 34.6758C17.4227 34.6367 16.5828 34.6758 16.4852 34.9102Z" fill="#4A86E8"/>
<path d="M28.9852 34.9102C28.9266 35.0664 28.907 35.3984 28.9461 35.6523C29.0047 36.1016 29.0438 36.1016 31.2508 36.1016H33.4969V35.418V34.7344L31.2899 34.6758C29.5125 34.6367 29.0828 34.6758 28.9852 34.9102Z" fill="#4A86E8"/>
<path d="M18.0477 38.0352C17.9891 38.1914 17.9695 38.5234 18.0086 38.7773L18.0672 39.2266H25.0008H31.9344V38.543V37.8594L25.0399 37.8008C19.2 37.7617 18.1453 37.8008 18.0477 38.0352Z" fill="#4A86E8"/>
</svg>
